<?xml version="1.0" encoding="UTF-8"?>
<svg width="2957pt" height="484pt" version="1.0" viewBox="0 0 2957 484" xmlns="http://www.w3.org/2000/svg">
 <title>Designboom</title>
 <desc>Web magazine about design</desc>
 <g transform="translate(0 484) scale(.1 -.1)" fill="#090909">
  <path d="m1907 4712-127-127v-383-382h-507l-508-1-382-379-383-380v-642-643l765-765h765 765l255 255v1660 1660l-255 255h-130-130l-128-128zm-195-1729 68-67v-500-500l-124-126h-380-380l-126 124v505 505l124 126h375 375l68-67z"/>
  <path d="m15927 4712-127-127v-1660l1-1660 128-122 129-123h769 768l765 765v635 635l-770 770-1010 6v377 377l-255 255h-135-135l-128-128zm1590-1724 63-62v-505-505l-124-126h-375-375l-126 124v510 510l114 116h380 380l63-62z"/>
  <path d="m9167 4702-127-127v-130-130l255-255h130 130l255 255v130 130l-255 255h-130-130l-128-128z"/>
  <path d="m28940 4524c-142-38-269-140-329-266-86-182-53-398 85-547 88-96 240-161 374-161 218 0 412 137 479 337 28 83 29 226 2 312-50 160-187 287-353 326-79 18-186 18-258-1zm286-129c230-112 285-423 108-614-75-82-151-115-259-114-151 0-271 76-337 211-31 62-33 74-33 167 0 88 3 107 27 158 74 157 191 231 354 224 64-3 93-9 140-32z"/>
  <path d="m28913 4293-33-4v-250-249h60 60v95 95h44c61 0 82-21 109-110l23-75 68-3c63-3 68-1 62 15-4 10-14 48-23 84-17 77-45 129-74 136-18 5-17 8 12 21 91 45 89 179-4 229-25 13-60 18-152 19-66 1-135 0-152-3zm196-94c42-15 58-52 36-85-15-24-69-44-117-44-28 0-28 1-28 63 0 35 3 67 7 70 10 11 67 8 102-4z"/>
  <path d="m3715 3833-110-4-382-382-383-382v-635-635l383-382 382-383h769l769-1 129 128 128 128v128 127l-132 130-133 129-700 1h-701l-59 60-60 61 62 59 61 60h704 703l255 255v385 385l-775 775-400-2c-220-1-449-4-510-5zm842-829 64-57-62-63-63-64h-381-381l-118 120 118 120h380 379l64-56z"/>
  <path d="m13078 3713-128-128v-1155-1155l255-255h130 130l255 255v760 760l126 133 126 132h251 252l255-255v-765-765l255-255h135 135l255 255v895 895l-382 382-383 382-770 7-770 6-127-129z"/>
  <path d="m24498 3712-128-131v-1153-1153l255-255h135 135l255 255v765 765l255 255h250 250l255-255v-765-765l255-255h135 135l245 245v770 770l255 255h250 250l255-255v-765-765l255-255h135 135l255 255v895 895l-775 775h-505-505l-391-391-189 192-188 192-1542 10-127-131z"/>
  <path d="m6665 3823-220-3-377-378-378-377v-390-390l123-121 122-122 1409-12 61-60 60-60-60-60-59-60h-701-700l-255-255v-130-130l255-255h765 765l765 765v385 385l-255 255h-697-697l-66 62-66 61 63 64 62 63h701 700l128 126 127 126v132 131l-255 255-550-2c-303-2-649-4-770-5z"/>
  <path d="m10482 3437-382-382v-640-640l765-765h451 451l52-54c28-30 51-58 51-63 0-4-26-33-57-65l-57-58h-701-700l-255-255v-135-135l245-245h775 775l765 765v1145 1145l-765 765h-515-515l-383-383zm1335-449 63-62v-505-505l-124-126h-380-380l-116 114v510 510l124 126h375 375l63-62z"/>
  <path d="m19032 3437-382-382v-641-640l758-754h522 522l768 752v642 641l-765 765h-520-520l-383-383zm1340-454 68-67v-505-505l-124-126h-380-380l-126 124v510 510l124 126h375 375l68-67z"/>
  <path d="m21892 3437-382-382v-642-641l382-376 381-376h521 521l383 376 382 376v641 642l-765 765h-520-520l-383-383zm1345-449 63-62v-510-510l-124-126h-380-380l-126 124v510 510l124 126h380 380l63-62z"/>
  <path d="m8657 3682-127-127v-130-130l255-255h128 127v-888-887l255-255h130 130l255 255v1145 1145l-255 255h-385-385l-128-128z"/>
 </g>
</svg>
