<svg xmlns="http://www.w3.org/2000/svg" width="603" height="558" viewBox="0 0 603 558">
<g>
<path d="M 205.02 352.75 L 205.00 401.00 L 182.00 401.00 L 182.00 242.00 L 205.00 242.00 L 205.00 254.50 C205.00,262.17 205.39,267.00 206.00,267.00 C206.55,267.00 207.00,266.63 207.00,266.19 C207.00,264.47 221.17,250.10 225.72,247.20 C241.98,236.81 265.41,235.49 282.50,243.98 C289.21,247.32 298.84,254.80 300.17,257.72 C301.32,260.24 307.41,269.00 308.01,269.00 C308.41,269.00 309.96,267.22 311.47,265.05 C317.82,255.87 330.48,246.16 341.33,242.13 C357.82,236.01 383.50,238.03 397.00,246.51 C402.84,250.18 412.66,261.49 415.90,268.29 C422.50,282.12 422.38,280.78 422.76,343.78 L 423.11 401.06 L 399.50 400.50 L 398.98 346.50 C398.53,300.21 398.22,291.82 396.83,287.76 C389.61,266.70 369.92,256.25 347.41,261.55 C334.54,264.58 325.56,271.96 319.05,284.86 C314.43,294.01 314.04,299.20 314.02,351.75 L 314.00 401.00 L 291.14 401.00 L 290.76 348.25 C290.42,300.97 290.20,294.93 288.60,290.00 C283.96,275.73 276.86,267.50 265.17,262.82 C257.19,259.62 242.10,259.68 233.68,262.94 C225.64,266.05 216.35,274.91 211.57,283.99 C205.31,295.92 205.04,298.75 205.02,352.75 Z" fill="rgb(5,0,1)"/>
<path d="M 205.02 352.75 C205.04,298.75 205.31,295.92 211.57,283.99 C216.35,274.91 225.64,266.05 233.68,262.94 C242.10,259.68 257.19,259.62 265.17,262.82 C273.21,266.03 279.08,270.93 283.47,278.32 C280.39,273.49 276.49,270.58 270.30,267.85 C264.07,265.11 250.10,264.84 241.85,267.31 C230.30,270.76 219.48,281.79 213.75,295.96 C211.55,301.38 211.49,302.61 210.95,353.00 C210.64,381.33 210.31,404.57 210.20,404.65 C210.09,404.74 208.58,405.30 206.85,405.90 C205.12,406.51 203.66,406.91 203.60,406.81 C203.55,406.71 200.80,406.48 197.50,406.30 C189.12,405.86 187.23,405.29 186.50,403.00 C186.09,401.72 184.99,401.00 183.43,401.00 L 205.00 401.00 ZM 389.80 274.74 C385.01,269.32 378.16,266.51 368.09,265.69 C354.29,264.55 342.28,268.59 333.58,277.29 C327.89,282.98 324.37,288.98 321.43,298.00 C319.83,302.91 319.60,308.86 319.24,353.50 C319.01,382.37 318.44,403.97 317.90,404.62 C316.76,405.99 301.33,407.04 298.39,405.94 C297.22,405.51 296.03,404.22 295.73,403.08 C295.41,401.84 294.37,401.00 293.16,401.00 L 314.00 401.00 L 314.02 351.75 C314.04,299.20 314.43,294.01 319.05,284.86 C325.56,271.96 334.54,264.58 347.41,261.55 C364.63,257.50 380.20,262.66 389.80,274.74 ZM 397.22 246.65 C397.30,246.70 397.39,246.76 397.47,246.81 C406.23,252.32 416.29,263.74 421.41,274.00 C426.06,283.31 427.09,289.02 428.11,311.00 C429.50,341.00 428.91,403.49 427.23,405.17 C426.36,406.04 423.08,406.38 416.73,406.24 C408.85,406.07 407.26,405.74 405.85,404.03 C404.94,402.93 403.03,401.58 401.60,401.04 L 400.23 400.52 L 423.11 401.06 L 422.76 343.78 C422.38,280.78 422.50,282.12 415.90,268.29 C412.70,261.58 403.08,250.46 397.22,246.65 ZM 182.00 242.00 L 182.00 401.00 L 180.99 401.00 L 181.24 321.25 L 181.50 241.50 L 205.50 241.50 L 205.81 244.17 C205.98,245.69 207.21,247.56 208.65,248.50 C210.45,249.69 211.03,250.78 210.68,252.33 C210.41,253.52 210.52,255.36 210.91,256.41 C211.58,258.17 211.96,258.04 215.57,254.83 C218.83,251.93 222.13,249.44 225.51,247.34 C220.74,250.54 207.00,264.50 207.00,266.19 C207.00,266.63 206.55,267.00 206.00,267.00 C205.39,267.00 205.00,262.17 205.00,254.50 L 205.00 242.00 ZM 300.30 257.99 C301.94,259.68 303.79,261.63 305.92,263.89 L 309.13 267.28 L 312.68 263.39 C312.25,263.94 311.85,264.50 311.47,265.05 C309.96,267.22 308.41,269.00 308.01,269.00 C307.43,269.00 301.73,260.81 300.30,257.99 ZM 399.50 400.24 L 399.00 400.05 L 398.99 348.77 L 398.98 347.42 ZM 268.19 239.35 C273.60,240.09 276.93,241.20 282.50,243.95 C286.41,245.87 288.94,247.33 292.23,250.15 C289.07,247.79 285.49,245.47 282.50,243.98 C278.08,241.79 273.23,240.24 268.19,239.35 ZM 364.49 238.59 C374.63,238.55 384.14,240.37 391.93,243.86 C384.24,240.51 374.31,238.69 364.49,238.59 ZM 397.88 294.26 C397.44,290.42 396.82,287.75 395.94,285.39 C396.26,286.16 396.55,286.95 396.83,287.76 C397.28,289.08 397.62,290.86 397.88,294.26 ZM 323.33 252.75 C326.84,249.82 330.48,247.37 334.29,245.39 C330.55,247.43 326.80,249.96 323.33,252.75 ZM 287.30 286.33 C287.75,287.51 288.18,288.73 288.60,290.00 C289.11,291.58 289.48,293.27 289.76,296.38 C289.48,293.27 289.10,291.59 288.58,290.00 C288.15,288.70 287.73,287.48 287.30,286.33 ZM 235.90 242.18 C238.65,241.15 241.48,240.34 244.40,239.75 C241.49,240.35 238.64,241.17 235.90,242.18 Z" fill="rgb(178,82,23)"/>
<path d="M 18.31 552.36 C13.20,550.55 7.51,544.48 6.07,539.32 C5.49,537.22 5.02,530.33 5.03,524.00 C5.05,511.22 6.39,506.72 11.62,501.80 C18.32,495.53 -5.34,496.00 301.00,496.00 C607.34,496.00 583.68,495.53 590.38,501.80 C595.72,506.81 596.95,511.15 596.98,524.93 C597.00,535.49 596.69,538.01 594.93,541.64 C592.35,546.98 587.21,551.57 582.28,552.94 C579.68,553.66 491.64,553.97 300.50,553.92 C57.33,553.85 21.97,553.66 18.31,552.36 ZM 27.33 460.90 C20.40,458.90 16.37,450.08 19.54,443.87 C20.98,441.05 38.72,412.15 46.46,400.00 C47.69,398.08 51.22,392.45 54.31,387.50 C57.40,382.55 61.91,375.35 64.32,371.50 C66.73,367.65 72.88,357.75 77.99,349.50 C83.10,341.25 88.91,331.94 90.89,328.80 C98.94,316.09 108.56,300.67 117.61,286.00 C122.87,277.48 128.64,268.25 130.44,265.50 C132.23,262.75 137.45,254.43 142.03,247.00 C146.61,239.57 151.80,231.25 153.56,228.50 C157.42,222.47 218.51,124.38 222.38,118.00 C223.88,115.53 239.64,90.32 257.40,62.00 C280.72,24.81 290.61,9.87 292.99,8.25 C297.49,5.19 304.51,5.20 309.07,8.27 C312.17,10.36 318.30,19.32 331.11,40.50 C333.43,44.35 337.22,50.42 339.51,54.00 C341.81,57.58 347.87,67.25 352.98,75.50 C358.10,83.75 363.73,92.75 365.49,95.50 C367.26,98.25 383.68,124.57 401.97,154.00 C420.26,183.43 436.24,209.07 437.48,211.00 C438.72,212.93 443.90,221.25 449.00,229.50 C454.10,237.75 459.03,245.62 459.96,247.00 C461.78,249.70 470.33,263.40 496.47,305.50 C511.28,329.35 517.39,339.12 525.55,352.00 C526.77,353.92 531.26,361.12 535.52,368.00 C539.78,374.88 544.29,382.08 545.54,384.00 C551.83,393.72 580.94,440.95 582.45,443.87 C585.74,450.29 581.58,458.91 574.19,460.97 C569.41,462.29 31.91,462.23 27.33,460.90 ZM 206.85 405.90 C208.58,405.30 210.09,404.74 210.20,404.65 C210.31,404.57 210.64,381.33 210.95,353.00 C211.49,302.61 211.55,301.38 213.75,295.96 C219.48,281.79 230.30,270.76 241.85,267.31 C250.10,264.84 264.07,265.11 270.30,267.85 C280.34,272.28 284.37,277.17 288.58,290.00 C290.20,294.95 290.42,300.76 290.76,348.25 C291.14,400.41 291.16,401.00 293.16,401.00 C294.37,401.00 295.41,401.84 295.73,403.08 C296.03,404.22 297.22,405.51 298.39,405.94 C301.33,407.04 316.76,405.99 317.90,404.62 C318.44,403.97 319.01,382.37 319.24,353.50 C319.60,308.86 319.83,302.91 321.43,298.00 C324.37,288.98 327.89,282.98 333.58,277.29 C342.28,268.59 354.29,264.55 368.09,265.69 C380.89,266.74 388.50,270.99 393.27,279.76 C398.70,289.74 398.97,292.94 398.99,348.77 L 399.00 400.05 L 401.60 401.04 C403.03,401.58 404.94,402.93 405.85,404.03 C407.26,405.74 408.85,406.07 416.73,406.24 C423.08,406.38 426.36,406.04 427.23,405.17 C428.91,403.49 429.50,341.00 428.11,311.00 C427.09,289.02 426.06,283.31 421.41,274.00 C416.29,263.74 406.23,252.32 397.47,246.81 C387.00,240.23 371.94,237.40 356.08,239.04 C340.04,240.70 327.32,247.35 315.59,260.20 L 309.13 267.28 L 305.92 263.89 C292.55,249.73 290.22,247.75 282.50,243.95 C276.14,240.82 272.70,239.81 265.75,239.05 C245.81,236.86 230.32,241.74 215.57,254.83 C211.96,258.04 211.58,258.17 210.91,256.41 C210.52,255.36 210.41,253.52 210.68,252.33 C211.03,250.78 210.45,249.69 208.65,248.50 C207.21,247.56 205.98,245.69 205.81,244.17 L 205.50 241.50 L 193.50 241.50 L 181.50 241.50 L 181.24 321.25 L 180.99 401.00 L 183.43 401.00 C184.99,401.00 186.09,401.72 186.50,403.00 C187.23,405.29 189.12,405.86 197.50,406.30 C200.80,406.48 203.55,406.71 203.60,406.81 C203.66,406.91 205.12,406.51 206.85,405.90 Z" fill="rgb(253,116,32)"/>
</g>
</svg>